<svg xmlns="http://www.w3.org/2000/svg" viewBox="0 0 282 42" width="282" height="42">
<g fill="#44cc11">
<rect x="6" y="0" width="5" height="5"/>
<rect x="12" y="0" width="5" height="5"/>
<rect x="18" y="0" width="5" height="5"/>
<rect x="0" y="6" width="5" height="5"/>
<rect x="24" y="6" width="5" height="5"/>
<rect x="0" y="12" width="5" height="5"/>
<rect x="24" y="12" width="5" height="5"/>
<rect x="0" y="18" width="5" height="5"/>
<rect x="24" y="18" width="5" height="5"/>
<rect x="0" y="24" width="5" height="5"/>
<rect x="12" y="24" width="5" height="5"/>
<rect x="24" y="24" width="5" height="5"/>
<rect x="0" y="30" width="5" height="5"/>
<rect x="18" y="30" width="5" height="5"/>
<rect x="6" y="36" width="5" height="5"/>
<rect x="12" y="36" width="5" height="5"/>
<rect x="24" y="36" width="5" height="5"/>
<rect x="42" y="0" width="5" height="5"/>
<rect x="66" y="0" width="5" height="5"/>
<rect x="42" y="6" width="5" height="5"/>
<rect x="66" y="6" width="5" height="5"/>
<rect x="42" y="12" width="5" height="5"/>
<rect x="66" y="12" width="5" height="5"/>
<rect x="42" y="18" width="5" height="5"/>
<rect x="66" y="18" width="5" height="5"/>
<rect x="42" y="24" width="5" height="5"/>
<rect x="66" y="24" width="5" height="5"/>
<rect x="42" y="30" width="5" height="5"/>
<rect x="66" y="30" width="5" height="5"/>
<rect x="48" y="36" width="5" height="5"/>
<rect x="54" y="36" width="5" height="5"/>
<rect x="60" y="36" width="5" height="5"/>
<rect x="90" y="0" width="5" height="5"/>
<rect x="96" y="0" width="5" height="5"/>
<rect x="102" y="0" width="5" height="5"/>
<rect x="84" y="6" width="5" height="5"/>
<rect x="108" y="6" width="5" height="5"/>
<rect x="84" y="12" width="5" height="5"/>
<rect x="108" y="12" width="5" height="5"/>
<rect x="84" y="18" width="5" height="5"/>
<rect x="90" y="18" width="5" height="5"/>
<rect x="96" y="18" width="5" height="5"/>
<rect x="102" y="18" width="5" height="5"/>
<rect x="108" y="18" width="5" height="5"/>
<rect x="84" y="24" width="5" height="5"/>
<rect x="108" y="24" width="5" height="5"/>
<rect x="84" y="30" width="5" height="5"/>
<rect x="108" y="30" width="5" height="5"/>
<rect x="84" y="36" width="5" height="5"/>
<rect x="108" y="36" width="5" height="5"/>
<rect x="126" y="0" width="5" height="5"/>
<rect x="132" y="0" width="5" height="5"/>
<rect x="138" y="0" width="5" height="5"/>
<rect x="144" y="0" width="5" height="5"/>
<rect x="150" y="0" width="5" height="5"/>
<rect x="138" y="6" width="5" height="5"/>
<rect x="138" y="12" width="5" height="5"/>
<rect x="138" y="18" width="5" height="5"/>
<rect x="138" y="24" width="5" height="5"/>
<rect x="138" y="30" width="5" height="5"/>
<rect x="138" y="36" width="5" height="5"/>
<rect x="168" y="0" width="5" height="5"/>
<rect x="174" y="0" width="5" height="5"/>
<rect x="180" y="0" width="5" height="5"/>
<rect x="186" y="0" width="5" height="5"/>
<rect x="192" y="0" width="5" height="5"/>
<rect x="180" y="6" width="5" height="5"/>
<rect x="180" y="12" width="5" height="5"/>
<rect x="180" y="18" width="5" height="5"/>
<rect x="180" y="24" width="5" height="5"/>
<rect x="180" y="30" width="5" height="5"/>
<rect x="180" y="36" width="5" height="5"/>
<rect x="210" y="0" width="5" height="5"/>
<rect x="216" y="0" width="5" height="5"/>
<rect x="222" y="0" width="5" height="5"/>
<rect x="228" y="0" width="5" height="5"/>
<rect x="210" y="6" width="5" height="5"/>
<rect x="234" y="6" width="5" height="5"/>
<rect x="210" y="12" width="5" height="5"/>
<rect x="234" y="12" width="5" height="5"/>
<rect x="210" y="18" width="5" height="5"/>
<rect x="216" y="18" width="5" height="5"/>
<rect x="222" y="18" width="5" height="5"/>
<rect x="228" y="18" width="5" height="5"/>
<rect x="210" y="24" width="5" height="5"/>
<rect x="222" y="24" width="5" height="5"/>
<rect x="210" y="30" width="5" height="5"/>
<rect x="228" y="30" width="5" height="5"/>
<rect x="210" y="36" width="5" height="5"/>
<rect x="234" y="36" width="5" height="5"/>
<rect x="258" y="0" width="5" height="5"/>
<rect x="264" y="0" width="5" height="5"/>
<rect x="270" y="0" width="5" height="5"/>
<rect x="252" y="6" width="5" height="5"/>
<rect x="276" y="6" width="5" height="5"/>
<rect x="252" y="12" width="5" height="5"/>
<rect x="276" y="12" width="5" height="5"/>
<rect x="252" y="18" width="5" height="5"/>
<rect x="276" y="18" width="5" height="5"/>
<rect x="252" y="24" width="5" height="5"/>
<rect x="276" y="24" width="5" height="5"/>
<rect x="252" y="30" width="5" height="5"/>
<rect x="276" y="30" width="5" height="5"/>
<rect x="258" y="36" width="5" height="5"/>
<rect x="264" y="36" width="5" height="5"/>
<rect x="270" y="36" width="5" height="5"/>
</g>
</svg>